# xmcd
#
# Track frame offsets: 
#        150
#        11100
#        23083
#        36518
#        47070
#        61843
#        71888
#        85543
#        100515
#        114953
#        126200
#        139755
#        148805
#        160958
#        172258
#        184815
#        194505
#        206240
#        219020
#        230310
#        241488
#        252768
#        264718
#        273870
#
# Disc length: 3816 seconds
#
# Revision: 0
# Processed by: cddbd v1.4PL0 Copyright (c) Steve Scherf et al.
# Submitted via: ExactAudioCopy v0.90b4
#
DISCID=5f0ee618
DTITLE=Louis Jordan - Louis Jordan and his Tympany Five 1944-1945
DYEAR=1986
DGENRE=Big Band
TTITLE0=Pinetop's Boogie Woogie
TTITLE1=How Long Must I Wait For You?
TTITLE2=Paper Boy
TTITLE3=It's Full Or It Ain't No Good
TTITLE4=Somebody Done Changed The Lock On The Door
TTITLE5=Sweatin' On Swing Street
TTITLE6=G. I. Jive
TTITLE7=The Green Grass Grows All Around
TTITLE8=Let Your Hair Down, Baby
TTITLE9=Saxa-Woogie
TTITLE10=I Can't See For Lookin'
TTITLE11=Re-Bop
TTITLE12=Deacon Jones
TTITLE13=Five Guys Named Moe
TTITLE14=Baby, You're Just Too Darned Good To Be True
TTITLE15=Honey Child
TTITLE16=Seventh Avenue
TTITLE17=When I Grow Too Old To Dream
TTITLE18=Is You Is Or Is You Ain't (Ma' Baby)?
TTITLE19=Junior
TTITLE20=Tillie
TTITLE21=I Like 'Em Fat Like That
TTITLE22=If You Can't Smile And Say Yes (Please Don't Cry And Say No)
TTITLE23=A Chicken Ain't Nothin' But A Bird
EXTD=1983, 1986  Circle Records, 1206 Decatur St, New Orleans, Louisia
EXTD=na 70116\nFrank Driggs Collection\n
EXTT0=
EXTT1=
EXTT2=
EXTT3=
EXTT4=
EXTT5=
EXTT6=
EXTT7=
EXTT8=
EXTT9=
EXTT10=
EXTT11=
EXTT12=
EXTT13=
EXTT14=
EXTT15=
EXTT16=
EXTT17=
EXTT18=
EXTT19=
EXTT20=
EXTT21=
EXTT22=
EXTT23=
PLAYORDER=
